# Blender v2.55 (sub 0) OBJ File: 'untitled.blend'
# www.blender.org
o Icosphere
v 0.187595 -0.794661 0.577345
v 0.607060 -0.794661 -0.000000
v -0.491122 -0.794661 0.356820
v -0.491122 -0.794661 -0.356820
v 0.187595 -0.794661 -0.577345
v 0.303530 -0.187595 0.934164
v -0.794653 -0.187595 0.577345
v -0.794653 -0.187595 -0.577345
v 0.303530 -0.187595 -0.934164
v -0.303530 0.187595 0.934164
v -0.982247 0.187595 -0.000000
v -0.303530 0.187595 -0.934164
v -0.187595 0.794661 0.577345
v -0.607060 0.794661 -0.000000
v -0.187595 0.794661 -0.577345
v 0.982247 -0.187595 -0.000000
v 0.794653 0.187595 0.577345
v 0.794653 0.187595 -0.577345
v 0.491122 0.794661 0.356820
v 0.491122 0.794661 -0.356820
vt 0.089396 0.829271
vt 0.132751 0.769599
vt 0.202901 0.792392
vt 0.132751 0.888944
vt 0.202900 0.866151
vt 0.500062 0.792392
vt 0.500062 0.866151
vt 0.429912 0.769598
vt 0.429912 0.888944
vt 0.386557 0.829271
vt 0.429912 0.962704
vt 0.386557 0.948617
vt 0.543417 0.925825
vt 0.500062 0.985498
vt 0.570212 0.769599
vt 0.613567 0.829272
vt 0.570212 0.888944
vt 0.429912 0.695838
vt 0.500062 0.673045
vt 0.543417 0.732719
vt 0.316407 0.806477
vt 0.316407 0.732717
vt 0.386557 0.709925
vt 0.316407 0.925824
vt 0.316407 0.852064
vt 0.019245 0.732718
vt 0.019246 0.806478
vt 0.089395 0.709926
vt 0.019246 0.852065
vt 0.019245 0.925824
vt 0.089395 0.948617
vt 0.132751 0.695839
vt 0.202901 0.673045
vt 0.246256 0.732718
vt 0.273051 0.769599
vt 0.316407 0.829272
vt 0.273051 0.888944
vt 0.246255 0.925825
vt 0.202900 0.985498
vt 0.132751 0.962704
vt 0.617250 0.792392 --41
vt 0.617250 0.866151 --42
vt 0.687400 0.888944 --43
vt 0.730755 0.829272 --44
vt 0.687400 0.769599 --45
vt 0.617250 0.665439 --46
vt 0.617250 0.739198 --47
vt 0.687400 0.761991 --48
vt 0.730755 0.702319 --49
vt 0.687400 0.642646 --50
vn 0.540086 -0.831355 0.130772
vn 0.187567 -0.794641 0.577349
vn -0.360057 -0.831355 0.423261
vn 0.222510 -0.693838 -0.684866
vn -0.638173 -0.723594 -0.262856
vn -0.361797 0.723594 -0.587786
vn -0.540086 0.831355 0.130772
vn 0.360057 0.831355 -0.423261
vn -0.187567 0.794641 0.577349
vn 0.582568 0.693838 0.423261
vn -0.291269 0.333781 0.896481
vn -0.982238 0.187567 0.000000
vn -0.861782 -0.276376 0.425306
vn -0.303507 0.187567 -0.934172
vn -0.720115 -0.111240 -0.684866
vn 0.794641 0.187567 -0.577349
vn 0.309000 0.000000 -0.951048
vn 0.808985 0.000000 0.587786
vn 0.985137 -0.111240 -0.130772
vn 0.138188 -0.276376 0.951048
usemtl (null)
s 1
#1
f 2/8/7 5/10/9 4/9/10 3/7/8 
#2 
f 13/29/4 10/30/17 7/31/16 11/4/19 
#3 
f 18/5/13 16/37/12 17/36/15 19/35/5 
#4 
f 8/1/18 12/2/20 15/28/2 14/26/1
#5 
f 17/4/15 6/40/14 10/39/17 13/38/4 
#6 
f 12/3/20 9/34/11 18/33/13 20/32/3 
#7 
f 10/8/17 6/6/14 1/20/6 3/19/8
#8 
f 2/11/7 16/14/12 18/13/13 9/7/11 
#9 
f 11/10/19 7/8/16 3/23/8 4/22/10
#10 
f 17/6/15 16/7/12 2/17/7 1/16/6
#11 
f 9/10/11 12/25/20 8/24/18 4/12/10 
#12 
f 20/1/3 19/4/5 13/5/4 14/3/1
#- 
#f 9/41/11 12/42/20 8/43/18 4/44/10 
#+ 
#f 20/46/3 19/47/5 13/48/4 14/49/1

f 3/7/8 1/6/6 2/8/7 
f 11/4/19 14/1/1 13/29/4 
f 19/35/5 20/3/3 18/5/13 
f 14/26/1 11/27/19 8/1/18 
f 13/38/4 19/5/5 17/4/15 
f 20/32/3 15/2/2 12/3/20 
f 3/19/8 7/18/16 10/8/17 
f 9/7/11 5/9/9 2/11/7 
f 4/22/10 8/21/18 11/10/19 
f 1/16/6 6/15/14 17/6/15 
f 4/12/10 5/9/9 9/10/11 
f 14/3/1 15/2/2 20/1/3 
#f 4/44/10 5/45/9 9/41/11 
#f 14/49/1 15/50/2 20/46/3
